<svg width="19" height="19" viewBox="0 0 19 19" fill="none" xmlns="http://www.w3.org/2000/svg">
<path d="M9.5 0C4.26 0 0 4.26 0 9.5C0 14.74 4.26 19 9.5 19C14.74 19 19 14.74 19 9.5C19 4.26 14.74 0 9.5 0ZM15.46 3.54C16.24 4.32 16.86 5.24 17.28 6.26L15.62 6.94C15.28 6.12 14.8 5.4 14.18 4.78L15.46 3.54ZM9.5 1.08C10.64 1.08 11.74 1.32 12.72 1.72L12.04 3.38C11.26 3.06 10.4 2.88 9.5 2.88C9.5 2.88 9.5 1.08 9.5 1.08ZM6.28 1.72L6.96 3.38C6.16 3.72 5.42 4.2 4.8 4.82L3.52 3.56C4.32 2.76 5.26 2.14 6.28 1.72ZM1.72 6.28L3.38 6.96C3.06 7.74 2.88 8.6 2.88 9.5H1.08C1.08 8.36 1.3 7.26 1.72 6.28ZM3.54 15.46C2.76 14.68 2.14 13.76 1.72 12.72L3.38 12.04C3.72 12.86 4.2 13.58 4.82 14.2L3.54 15.46ZM9.5 17.92C8.36 17.92 7.28 17.7 6.28 17.28L6.96 15.62C7.74 15.94 8.6 16.12 9.5 16.12V17.92ZM3.94 9.5C3.94 6.44 6.44 3.94 9.5 3.94C12.56 3.94 15.06 6.44 15.06 9.5C15.06 12.56 12.58 15.06 9.5 15.06C6.42 15.06 3.94 12.56 3.94 9.5ZM12.72 17.28L12.04 15.62C12.84 15.28 13.58 14.8 14.18 14.18L15.46 15.44C14.68 16.24 13.76 16.86 12.72 17.28ZM15.64 12.04C15.96 11.26 16.14 10.4 16.14 9.5H17.94C17.94 10.64 17.7 11.74 17.3 12.72L15.64 12.04Z" fill="#1B2A5D"/>
</svg>
