<svg width="34" height="34" viewBox="0 0 34 34" fill="none" xmlns="http://www.w3.org/2000/svg">
<path d="M17 0C7.62316 0 0 7.62316 0 17C0 26.3768 7.62316 34 17 34C26.3768 34 34 26.3768 34 17C34 7.62316 26.3768 0 17 0ZM27.6653 6.33474C29.0611 7.73053 30.1705 9.37684 30.9221 11.2021L27.9516 12.4189C27.3432 10.9516 26.4842 9.66316 25.3747 8.55368L27.6653 6.33474ZM17 1.93263C19.04 1.93263 21.0084 2.36211 22.7621 3.07789L21.5453 6.04842C20.1495 5.47579 18.6105 5.15368 17 5.15368C17 5.15368 17 1.93263 17 1.93263ZM11.2379 3.07789L12.4547 6.04842C11.0232 6.65684 9.69895 7.51579 8.58947 8.62526L6.29895 6.37053C7.73053 4.93895 9.41263 3.82947 11.2379 3.07789ZM3.07789 11.2379L6.04842 12.4547C5.47579 13.8505 5.15368 15.3895 5.15368 17H1.93263C1.93263 14.96 2.32632 12.9916 3.07789 11.2379ZM6.33474 27.6653C4.93895 26.2695 3.82947 24.6232 3.07789 22.7621L6.04842 21.5453C6.65684 23.0126 7.51579 24.3011 8.62526 25.4105L6.33474 27.6653ZM17 32.0674C14.96 32.0674 13.0274 31.6737 11.2379 30.9221L12.4547 27.9516C13.8505 28.5242 15.3895 28.8463 17 28.8463V32.0674ZM7.05053 17C7.05053 11.5242 11.5242 7.05053 17 7.05053C22.4758 7.05053 26.9495 11.5242 26.9495 17C26.9495 22.4758 22.5116 26.9495 17 26.9495C11.4884 26.9495 7.05053 22.4758 7.05053 17ZM22.7621 30.9221L21.5453 27.9516C22.9768 27.3432 24.3011 26.4842 25.3747 25.3747L27.6653 27.6295C26.2695 29.0611 24.6232 30.1705 22.7621 30.9221ZM27.9874 21.5453C28.56 20.1495 28.8821 18.6105 28.8821 17H32.1032C32.1032 19.04 31.6737 21.0084 30.9579 22.7621L27.9874 21.5453Z" fill="white"/>
</svg>
