<svg width="248" height="183" viewBox="0 0 248 183" fill="none" xmlns="http://www.w3.org/2000/svg">
<path d="M242.927 0L223.184 2.5483L204.196 5.00222V9.07636L201.133 5.39548L191.646 6.62244L171.904 9.17074L162.716 10.3505L159.339 10.791L151.093 11.8606L149.098 12.1123L141.371 13.119L126.167 15.0853L116.681 16.3123L111.938 16.9258L107.194 17.5392V21.6134L103.975 17.9482L84.9859 20.4022L65.2433 22.9505L61.8508 23.3909L42.1082 25.9392V30.0133L38.7156 26.3797L19.7269 28.8336L0 31.3819V44.6268V54.9773V57.8716V68.2222V71.1165V81.467V84.3614V94.7119V107.957L5.07308 111.37L24.8157 108.838L30.3757 108.114V114.139L20.8892 115.366V128.611V138.961V141.856V152.206V155.1V165.451V178.696L25.9623 182.109L45.7049 179.561V166.316V155.966V153.213L53.4166 152.222V161.267L58.4897 164.68L62.9031 164.114V173.285L67.9762 176.698L83.7137 174.669L97.2053 172.923L110.964 171.145L120.45 169.918L129.937 168.691L143.476 166.945L152.962 165.718L162.449 164.491V160.417L165.904 164.051L175.39 162.824L179.16 162.336L185.647 161.503L195.133 160.276L208.106 158.608L227.095 156.154V132.559L222.022 129.145L217.609 129.712V107.28L212.536 105.031L227.111 103.143V82.694L238.513 81.2153V67.9705V57.62V54.7413V44.3908V41.4964L248 40.2695V27.0246V16.6741V3.41347L242.927 0Z" fill="#2B2320"/>
<path d="M89.3679 25.0111C86.211 25.4201 83.0383 25.8291 79.8814 26.2381C76.7245 26.6471 73.5518 27.0561 70.3949 27.4651C70.3949 31.8853 70.3949 36.2897 70.3949 40.7099C70.3949 45.1301 70.3949 49.5346 70.3949 53.9548C70.3949 58.375 70.3949 62.7795 70.3949 67.1997C70.3949 71.6199 70.3949 76.0244 70.3949 80.4446C70.3949 84.8648 70.3949 89.2693 70.3949 93.6895C73.5518 93.2805 76.7245 92.8715 79.8814 92.4625C79.8814 88.0423 79.8814 83.6378 79.8814 79.2176C79.8814 74.7974 79.8814 70.393 79.8814 65.9727C83.0383 65.5638 86.211 65.1548 89.3679 64.7458C89.3679 60.3256 89.3679 55.9211 89.3679 51.5009C86.211 51.9099 83.0383 52.3189 79.8814 52.7279C79.8814 48.3077 79.8814 43.9032 79.8814 39.483C83.0383 39.074 86.211 38.665 89.3679 38.256C89.3679 42.6762 89.3679 47.0807 89.3679 51.5009C92.5248 51.0919 95.6975 50.6829 98.8544 50.2739C98.8544 45.8537 98.8544 41.4493 98.8544 37.0291C98.8544 32.6089 98.8544 28.2044 98.8544 23.7842C95.6818 24.1932 92.5248 24.6022 89.3679 25.0111Z" fill="#2B86E0"/>
<path d="M89.3679 91.2513C92.5249 90.8423 95.6975 90.4333 98.8544 90.0243C98.8544 85.6041 98.8544 81.1996 98.8544 76.7794C98.8544 72.3592 98.8544 67.9547 98.8544 63.5345C95.6975 63.9435 92.5249 64.3525 89.3679 64.7615C89.3679 69.1817 89.3679 73.5862 89.3679 78.0064C89.3679 82.4109 89.3679 86.8311 89.3679 91.2513Z" fill="#2B86E0"/>
<path d="M123.796 146.999C123.796 151.419 123.796 155.824 123.796 160.244C126.953 159.835 130.125 159.426 133.282 159.017C136.439 158.608 139.612 158.199 142.769 157.79C145.926 157.381 149.098 156.972 152.255 156.563C152.255 152.143 152.255 147.739 152.255 143.318C149.098 143.727 145.926 144.136 142.769 144.545C139.612 144.954 136.439 145.363 133.282 145.772C133.282 141.352 133.282 136.948 133.282 132.527C130.125 132.936 126.953 133.345 123.796 133.754C123.796 138.159 123.796 142.579 123.796 146.999Z" fill="#2B86E0"/>
<path d="M142.785 91.5502C139.628 91.9592 136.455 92.3682 133.298 92.7772C130.141 93.1861 126.968 93.5951 123.812 94.0041C123.812 98.4243 123.812 102.829 123.812 107.249C126.968 106.84 130.141 106.431 133.298 106.022C136.455 105.613 139.628 105.204 142.785 104.795C142.785 109.215 142.785 113.62 142.785 118.04C145.941 117.631 149.114 117.222 152.271 116.813C152.271 112.393 152.271 107.988 152.271 103.568C152.271 99.1479 152.271 94.7434 152.271 90.3232C149.114 90.7322 145.941 91.1412 142.785 91.5502Z" fill="#2B86E0"/>
<path d="M133.282 132.512C136.439 132.103 139.612 131.694 142.769 131.285C142.769 126.865 142.769 122.46 142.769 118.04C139.612 118.449 136.439 118.858 133.282 119.267C133.282 123.687 133.282 128.107 133.282 132.512Z" fill="#2B86E0"/>
<path d="M44.9982 104.182C41.8412 104.591 38.6686 105 35.5117 105.409C35.5117 109.829 35.5117 114.233 35.5117 118.653C38.6686 118.244 41.8412 117.835 44.9982 117.426C44.9982 121.847 44.9982 126.251 44.9982 130.671C44.9982 130.719 44.9982 130.766 44.9982 130.797C41.8412 131.206 38.6686 131.615 35.5117 132.024C35.5117 131.977 35.5117 131.93 35.5117 131.898C35.5117 127.478 35.5117 123.074 35.5117 118.653C32.3547 119.062 29.1821 119.471 26.0251 119.88C26.0251 124.301 26.0251 128.705 26.0251 133.125C26.0251 137.545 26.0251 141.95 26.0251 146.37C26.0251 150.79 26.0251 155.195 26.0251 159.615C26.0251 164.035 26.0251 168.44 26.0251 172.86C29.1821 172.451 32.3547 172.042 35.5117 171.633C35.5117 167.213 35.5117 162.808 35.5117 158.388C35.5117 154.015 35.5117 149.642 35.5117 145.269C38.6686 144.86 41.8412 144.451 44.9982 144.042C44.9982 143.995 44.9982 143.948 44.9982 143.916C48.1551 143.507 51.3277 143.098 54.4847 142.689C54.4847 138.269 54.4847 133.865 54.4847 129.444C54.4847 125.024 54.4847 120.62 54.4847 116.199C54.4847 111.779 54.4847 107.375 54.4847 102.955C51.3277 103.364 48.1551 103.773 44.9982 104.182Z" fill="#FCAB16"/>
<path d="M68.0233 127.698C68.0233 123.278 68.0233 118.874 68.0233 114.453C68.0233 110.033 68.0233 105.629 68.0233 101.208C64.8663 101.617 61.6937 102.026 58.5367 102.435C58.5367 106.856 58.5367 111.26 58.5367 115.68C58.5367 120.101 58.5367 124.505 58.5367 128.925C58.5367 133.345 58.5367 137.75 58.5367 142.17C58.5367 146.59 58.5367 150.995 58.5367 155.415C61.6937 155.006 64.8663 154.597 68.0233 154.188C68.0233 149.768 68.0233 145.363 68.0233 140.943C68.0233 136.539 68.0233 132.118 68.0233 127.698Z" fill="#F66B1D"/>
<path d="M77.5256 99.9816C77.5256 104.402 77.5256 108.806 77.5256 113.226C77.5256 117.647 77.5256 122.051 77.5256 126.471C77.5256 130.892 77.5256 135.296 77.5256 139.716C77.5256 144.136 77.5256 148.541 77.5256 152.961C74.3686 153.37 71.196 153.779 68.0391 154.188C68.0391 158.608 68.0391 163.013 68.0391 167.433C71.196 167.024 74.3686 166.615 77.5256 166.206C80.6825 165.797 83.8551 165.388 87.0121 164.979C87.0121 160.559 87.0121 156.154 87.0121 151.734C87.0121 147.314 87.0121 142.909 87.0121 138.489C87.0121 134.069 87.0121 129.665 87.0121 125.244C87.0121 120.824 87.0121 116.42 87.0121 112C87.0121 107.579 87.0121 103.175 87.0121 98.7546C83.8551 99.1636 80.6825 99.5726 77.5256 99.9816Z" fill="#F66B1D"/>
<path d="M188.427 98.8961C188.427 103.316 188.427 107.721 188.427 112.141C188.427 116.561 188.427 120.966 188.427 125.386C188.427 129.806 188.427 134.211 188.427 138.631C188.427 143.051 188.427 147.455 188.427 151.876C191.584 151.467 194.756 151.058 197.913 150.649C201.07 150.24 204.243 149.831 207.4 149.422C210.557 149.013 213.729 148.604 216.886 148.195C216.886 143.775 216.886 139.37 216.886 134.95C213.729 135.359 210.557 135.768 207.4 136.177C204.243 136.586 201.07 136.995 197.913 137.404C197.913 132.984 197.913 128.579 197.913 124.159C201.07 123.75 204.243 123.341 207.4 122.932C207.4 118.512 207.4 114.107 207.4 109.687C204.243 110.096 201.07 110.505 197.913 110.914C197.913 106.494 197.913 102.089 197.913 97.6692C194.756 98.0782 191.599 98.4872 188.427 98.8961Z" fill="#F66B1D"/>
<path d="M216.902 95.2153C216.902 90.7951 216.902 86.3907 216.902 81.9705C213.745 82.3794 210.572 82.7884 207.415 83.1974C204.258 83.6064 201.086 84.0154 197.929 84.4244C197.929 88.8446 197.929 93.2491 197.929 97.6693C201.086 97.2603 204.258 96.8513 207.415 96.4423C210.572 96.0333 213.745 95.6243 216.902 95.2153Z" fill="#F66B1D"/>
<path d="M24.1089 33.4425C24.1089 37.8627 24.1089 42.2672 24.1089 46.6874C24.1089 51.1076 24.1089 55.5121 24.1089 59.9323C20.952 60.3413 17.7793 60.7503 14.6224 61.1593C14.6224 56.7391 14.6224 52.3346 14.6224 47.9144C14.6224 43.4942 14.6224 39.0897 14.6224 34.6695C11.4654 35.0785 8.2928 35.4875 5.13586 35.8965C5.13586 40.3167 5.13586 44.7211 5.13586 49.1413C5.13586 53.5615 5.13586 57.966 5.13586 62.3862C5.13586 66.8064 5.13586 71.2109 5.13586 75.6311C5.13586 80.0513 5.13586 84.4558 5.13586 88.876C5.13586 93.2962 5.13586 97.7007 5.13586 102.121C8.2928 101.712 11.4654 101.303 14.6224 100.894C14.6224 96.4737 14.6224 92.0692 14.6224 87.649C14.6224 83.2288 14.6224 78.8243 14.6224 74.4041C17.7793 73.9952 20.952 73.5862 24.1089 73.1772C24.1089 77.5974 24.1089 82.0019 24.1089 86.4221C24.1089 90.8423 24.1089 95.2467 24.1089 99.6669C27.2658 99.258 30.4385 98.849 33.5954 98.44C33.5954 94.0198 33.5954 89.6153 33.5954 85.1951C33.5954 80.7749 33.5954 76.3704 33.5954 71.9502C33.5954 67.53 33.5954 63.1255 33.5954 58.7053C33.5954 54.2851 33.5954 49.8807 33.5954 45.4605C33.5954 41.0403 33.5954 36.6358 33.5954 32.2156C30.4385 32.6246 27.2658 33.0336 24.1089 33.4425Z" fill="#2B86E0"/>
<path d="M56.7306 29.2268C53.5737 29.6358 50.401 30.0448 47.2441 30.4538C47.2441 34.874 47.2441 39.2785 47.2441 43.6987C50.401 43.2897 53.5737 42.8807 56.7306 42.4717C56.7306 46.8919 56.7306 51.2964 56.7306 55.7166C56.7306 60.1368 56.7306 64.5413 56.7306 68.9615C53.5737 69.3705 50.401 69.7795 47.2441 70.1884C47.2441 65.7682 47.2441 61.3638 47.2441 56.9436C47.2441 52.5234 47.2441 48.1189 47.2441 43.6987C44.0871 44.1077 40.9145 44.5167 37.7576 44.9256C37.7576 49.3458 37.7576 53.7503 37.7576 58.1705C37.7576 62.5907 37.7576 66.9952 37.7576 71.4154C37.7576 75.8356 37.7576 80.2401 37.7576 84.6603C37.7576 89.0805 37.7576 93.485 37.7576 97.9052C40.9145 97.4962 44.0871 97.0872 47.2441 96.6782C47.2441 92.258 47.2441 87.8535 47.2441 83.4333C50.401 83.0243 53.5737 82.6153 56.7306 82.2064C56.7306 86.6266 56.7306 91.031 56.7306 95.4512C59.8875 95.0423 63.0602 94.6333 66.2171 94.2243C66.2171 89.8041 66.2171 85.3996 66.2171 80.9794C66.2171 76.5592 66.2171 72.1547 66.2171 67.7345C66.2171 63.3143 66.2171 58.9098 66.2171 54.4896C66.2171 50.0694 66.2171 45.665 66.2171 41.2448C66.2171 36.8246 66.2171 32.4201 66.2171 27.9999C63.0602 28.4089 59.9032 28.8179 56.7306 29.2268Z" fill="#F66B1D"/>
<path d="M186.526 12.4583C183.369 12.8673 180.196 13.2763 177.04 13.6852C177.04 18.1054 177.04 22.5099 177.04 26.9301C177.04 31.3503 177.04 35.7548 177.04 40.175C177.04 44.5952 177.04 48.9997 177.04 53.4199C177.04 57.8401 177.04 62.2446 177.04 66.6648C177.04 71.085 177.04 75.4894 177.04 79.9097C180.196 79.5007 183.369 79.0917 186.526 78.6827C186.526 74.2625 186.526 69.858 186.526 65.4378C186.526 61.0176 186.526 56.6131 186.526 52.1929C186.526 47.7727 186.526 43.3683 186.526 38.948C186.526 34.5278 186.526 30.1234 186.526 25.7032C189.683 25.2942 192.856 24.8852 196.013 24.4762C196.013 20.056 196.013 15.6515 196.013 11.2313C192.856 11.6403 189.683 12.0493 186.526 12.4583Z" fill="#FCAB16"/>
<path d="M196.013 24.4762C196.013 28.8964 196.013 33.3009 196.013 37.7211C196.013 42.1413 196.013 46.5458 196.013 50.966C196.013 55.3862 196.013 59.7907 196.013 64.2109C196.013 68.6311 196.013 73.0355 196.013 77.4557C199.17 77.0468 202.342 76.6378 205.499 76.2288C205.499 71.8086 205.499 67.4041 205.499 62.9839C205.499 58.5637 205.499 54.1592 205.499 49.739C205.499 45.3188 205.499 40.9144 205.499 36.4941C205.499 32.0739 205.499 27.6695 205.499 23.2493C202.342 23.6583 199.17 24.0672 196.013 24.4762Z" fill="#FCAB16"/>
<path d="M102.812 49.7705C102.812 54.1907 102.812 58.5952 102.812 63.0154C102.812 67.4356 102.812 71.8401 102.812 76.2603C102.812 80.6805 102.812 85.085 102.812 89.5052C105.969 89.0962 109.142 88.6872 112.299 88.2782C112.299 83.858 112.299 79.4535 112.299 75.0333C112.299 70.6131 112.299 66.2087 112.299 61.7885C112.299 57.3683 112.299 52.9638 112.299 48.5436C112.299 44.1234 112.299 39.7189 112.299 35.2987C109.142 35.7077 105.969 36.1167 102.812 36.5257C102.812 40.9301 102.812 45.3503 102.812 49.7705Z" fill="white"/>
<path d="M121.785 20.827C118.629 21.236 115.456 21.6449 112.299 22.0539C112.299 26.4741 112.299 30.8786 112.299 35.2988C113.885 35.0943 115.456 34.8898 117.042 34.6853C117.042 39.1055 117.042 43.51 117.042 47.9302C117.042 52.3504 117.042 56.7549 117.042 61.1751C120.199 60.7661 123.372 60.3571 126.529 59.9481C126.529 55.5279 126.529 51.1235 126.529 46.7032C126.529 42.283 126.529 37.8786 126.529 33.4584C128.115 33.2539 129.686 33.0494 131.272 32.8449C131.272 37.2651 131.272 41.6696 131.272 46.0898C131.272 50.51 131.272 54.9145 131.272 59.3347C131.272 63.7549 131.272 68.1593 131.272 72.5795C131.272 76.9997 131.272 81.4042 131.272 85.8244C134.429 85.4154 137.602 85.0064 140.758 84.5975C140.758 80.1772 140.758 75.7728 140.758 71.3526C140.758 66.9324 140.758 62.5279 140.758 58.1077C140.758 53.6875 140.758 49.283 140.758 44.8628C140.758 40.4426 140.758 36.0381 140.758 31.6179C140.758 27.1977 140.758 22.7933 140.758 18.373C137.602 18.782 134.429 19.191 131.272 19.6C128.115 20.009 124.958 20.418 121.785 20.827Z" fill="white"/>
<path d="M165.967 115.051C165.967 110.631 165.967 106.226 165.967 101.806C165.967 97.3861 165.967 92.9816 165.967 88.5614C162.81 88.9704 159.637 89.3794 156.48 89.7884C156.48 94.2086 156.48 98.613 156.48 103.033C156.48 107.453 156.48 111.858 156.48 116.278C156.48 120.698 156.48 125.103 156.48 129.523C156.48 133.943 156.48 138.348 156.48 142.768C159.637 142.359 162.81 141.95 165.967 141.541C165.967 137.121 165.967 132.716 165.967 128.296C165.967 123.876 165.967 119.471 165.967 115.051Z" fill="white"/>
<path d="M165.967 141.541C165.967 145.961 165.967 150.366 165.967 154.786C169.124 154.377 172.296 153.968 175.453 153.559C178.61 153.15 181.783 152.741 184.94 152.332C184.94 147.912 184.94 143.507 184.94 139.087C181.783 139.496 178.61 139.905 175.453 140.314C172.296 140.723 169.139 141.132 165.967 141.541Z" fill="white"/>
<path d="M100.771 96.9771C97.6138 97.3861 94.4411 97.7951 91.2842 98.2041C91.2842 102.624 91.2842 107.029 91.2842 111.449C94.4411 111.04 97.6138 110.631 100.771 110.222C103.928 109.813 107.1 109.404 110.257 108.995C110.257 113.415 110.257 117.82 110.257 122.24C113.414 121.831 116.587 121.422 119.744 121.013C119.744 116.593 119.744 112.188 119.744 107.768C119.744 103.348 119.744 98.9434 119.744 94.5232C116.587 94.9322 113.414 95.3412 110.257 95.7502C107.085 96.1591 103.928 96.5681 100.771 96.9771Z" fill="white"/>
<path d="M91.2684 151.199C91.2684 155.62 91.2684 160.024 91.2684 164.444C94.4254 164.035 97.598 163.626 100.755 163.217C103.912 162.808 107.085 162.399 110.241 161.99C113.398 161.581 116.571 161.172 119.728 160.763C119.728 156.343 119.728 151.939 119.728 147.519C116.571 147.927 113.398 148.336 110.241 148.745C107.085 149.154 103.912 149.563 100.755 149.972C100.755 145.552 100.755 141.148 100.755 136.728C97.598 137.137 94.4254 137.546 91.2684 137.954C91.2684 142.359 91.2684 146.779 91.2684 151.199Z" fill="white"/>
<path d="M100.771 136.712C103.928 136.303 107.1 135.894 110.257 135.485C110.257 131.065 110.257 126.66 110.257 122.24C107.1 122.649 103.928 123.058 100.771 123.467C100.771 127.887 100.771 132.307 100.771 136.712Z" fill="white"/>
<path d="M218.818 8.28979C215.661 8.69878 212.488 9.10777 209.332 9.51676C209.332 13.937 209.332 18.3414 209.332 22.7616C209.332 27.1818 209.332 31.5863 209.332 36.0065C212.488 35.5975 215.661 35.1885 218.818 34.7796C218.818 30.3594 218.818 25.9549 218.818 21.5347C218.818 17.1145 218.818 12.71 218.818 8.28979Z" fill="white"/>
<path d="M228.304 7.0629C228.304 11.4831 228.304 15.8876 228.304 20.3078C228.304 24.728 228.304 29.1325 228.304 33.5527C231.461 33.1437 234.634 32.7347 237.791 32.3257C237.791 27.9055 237.791 23.501 237.791 19.0808C237.791 14.6606 237.791 10.2561 237.791 5.83594C234.634 6.24492 231.477 6.65391 228.304 7.0629Z" fill="white"/>
<path d="M218.818 48.0245C218.818 52.4447 218.818 56.8491 218.818 61.2693C218.818 65.6895 218.818 70.094 218.818 74.5142C221.975 74.1052 225.148 73.6962 228.305 73.2873C228.305 68.8671 228.305 64.4626 228.305 60.0424C228.305 55.6222 228.305 51.2177 228.305 46.7975C228.305 42.3773 228.305 37.9728 228.305 33.5526C225.148 33.9616 221.975 34.3706 218.818 34.7796C218.818 39.1998 218.818 43.62 218.818 48.0245Z" fill="white"/>
<path d="M163.721 15.3999C160.564 15.8089 157.391 16.2179 154.234 16.6269C151.077 17.0359 147.905 17.4449 144.748 17.8539C144.748 22.2741 144.748 26.6785 144.748 31.0987C144.748 35.5189 144.748 39.9234 144.748 44.3436C144.748 48.7638 144.748 53.1683 144.748 57.5885C144.748 62.0087 144.748 66.4132 144.748 70.8334C147.905 70.4244 151.077 70.0154 154.234 69.6064C154.234 65.1862 154.234 60.7817 154.234 56.3615C154.234 51.9413 154.234 47.5369 154.234 43.1167C154.234 38.6965 154.234 34.292 154.234 29.8718C157.391 29.4628 160.564 29.0538 163.721 28.6448C163.721 33.065 163.721 37.4695 163.721 41.8897C163.721 46.3099 163.721 50.7144 163.721 55.1346C163.721 59.5548 163.721 63.9593 163.721 68.3795C160.564 68.7885 157.391 69.1974 154.234 69.6064C154.234 74.0266 154.234 78.4311 154.234 82.8513C157.391 82.4423 160.564 82.0333 163.721 81.6244C166.878 81.2154 170.05 80.8064 173.207 80.3974C173.207 75.9772 173.207 71.5727 173.207 67.1525C173.207 62.7323 173.207 58.3278 173.207 53.9076C173.207 49.4874 173.207 45.0829 173.207 40.6627C173.207 36.2425 173.207 31.8381 173.207 27.4179C173.207 22.9977 173.207 18.5932 173.207 14.173C170.05 14.582 166.878 14.9909 163.721 15.3999Z" fill="#2B86E0"/>
</svg>
